<svg width="1280" height="720" xmlns="http://www.w3.org/2000/svg" xmlns:xlink="http://www.w3.org/1999/xlink" overflow="hidden"><defs><clipPath id="clip0"><rect x="0" y="0" width="1280" height="720"/></clipPath></defs><g clip-path="url(#clip0)"><rect x="0" y="0" width="1280" height="720" fill="#141A2D"/><path d="M34 127.168C34 97.2517 58.2517 73 88.1676 73L559.832 73C589.748 73 614 97.2517 614 127.168L614 343.832C614 373.748 589.748 398 559.832 398L88.1676 398C58.2517 398 34 373.748 34 343.832Z" fill="#C9C9C9" fill-rule="evenodd" fill-opacity="0.188235"/><path d="M640 127.168C640 97.2517 664.252 73 694.168 73L1165.83 73C1195.75 73 1220 97.2517 1220 127.168L1220 343.832C1220 373.748 1195.75 398 1165.83 398L694.168 398C664.252 398 640 373.748 640 343.832Z" fill="#C9C9C9" fill-rule="evenodd" fill-opacity="0.188235"/><path d="M34 460.834C34 437.178 53.1776 418 76.8343 418L1177.17 418C1200.82 418 1220 437.178 1220 460.834L1220 632.166C1220 655.822 1200.82 675 1177.17 675L76.8343 675C53.1776 675 34 655.822 34 632.166Z" fill="#C9C9C9" fill-rule="evenodd" fill-opacity="0.188235"/></g></svg>